<?xml version="1.0" encoding="UTF-8" standalone="no"?>
<!DOCTYPE svg PUBLIC "-//W3C//DTD SVG 1.1//EN"
 "http://www.w3.org/Graphics/SVG/1.1/DTD/svg11.dtd">
<!-- Generated by graphviz version 2.38.0 (20140413.2041)
 -->
<!-- Title: d1e4002 Pages: 1 -->
<svg width="786pt" height="302pt"
 viewBox="0.00 0.00 786.00 302.00" xmlns="http://www.w3.org/2000/svg" xmlns:xlink="http://www.w3.org/1999/xlink">
<g id="graph0" class="graph" transform="scale(1 1) rotate(0) translate(4 298)">
<title>d1e4002</title>
<polygon fill="white" stroke="none" points="-4,4 -4,-298 782,-298 782,4 -4,4"/>
<text text-anchor="middle" x="389" y="-7.8" font-family="Times,serif" font-size="14.00">Powered by http://rhizomik.net</text>
<!-- http://divo.github.io/LiteraryWork -->
<g id="node1" class="node"><title>http://divo.github.io/LiteraryWork</title>
<polygon fill="none" stroke="black" points="365.5,-189 251.5,-189 251.5,-170 365.5,-170 365.5,-189"/>
<text text-anchor="middle" x="308.5" y="-177" font-family="Times,serif" font-size="10.00">Literary Work</text>
</g>
<!-- http://divo.github.io/Edition -->
<g id="node2" class="node"><title>http://divo.github.io/Edition</title>
<polygon fill="none" stroke="black" points="343,-168 274,-168 274,-149 343,-149 343,-168"/>
<text text-anchor="middle" x="308.5" y="-156" font-family="Times,serif" font-size="10.00">Edition</text>
</g>
<!-- http://divo.github.io/Place -->
<g id="node3" class="node"><title>http://divo.github.io/Place</title>
<polygon fill="none" stroke="black" points="95.5,-220 41.5,-220 41.5,-201 95.5,-201 95.5,-220"/>
<text text-anchor="middle" x="68.5" y="-208" font-family="Times,serif" font-size="10.00">Place</text>
</g>
<!-- http://divo.github.io/RealPlace -->
<g id="node4" class="node"><title>http://divo.github.io/RealPlace</title>
<polygon fill="none" stroke="black" points="354.5,-231 262.5,-231 262.5,-212 354.5,-212 354.5,-231"/>
<text text-anchor="middle" x="308.5" y="-219" font-family="Times,serif" font-size="10.00">Real Place</text>
</g>
<!-- http://divo.github.io/Place&#45;&gt;http://divo.github.io/RealPlace -->
<g id="edge1" class="edge"><title>http://divo.github.io/Place&#45;&gt;http://divo.github.io/RealPlace</title>
<path fill="none" stroke="blue" d="M105.718,-213.114C118.165,-213.955 132.189,-214.839 145,-215.5 184.612,-217.543 229.691,-219.15 262.304,-220.185"/>
<polygon fill="blue" stroke="blue" points="105.912,-209.619 95.6946,-212.424 105.43,-216.603 105.912,-209.619"/>
<text text-anchor="middle" x="183" y="-222.5" font-family="Times,serif" font-size="10.00">subClassOf</text>
</g>
<!-- http://divo.github.io/FictionalPlace -->
<g id="node5" class="node"><title>http://divo.github.io/FictionalPlace</title>
<polygon fill="none" stroke="black" points="373,-210 244,-210 244,-191 373,-191 373,-210"/>
<text text-anchor="middle" x="308.5" y="-198" font-family="Times,serif" font-size="10.00">Fictional Place</text>
</g>
<!-- http://divo.github.io/Place&#45;&gt;http://divo.github.io/FictionalPlace -->
<g id="edge2" class="edge"><title>http://divo.github.io/Place&#45;&gt;http://divo.github.io/FictionalPlace</title>
<path fill="none" stroke="blue" d="M106.101,-208.962C142.745,-207.422 199.868,-205.022 243.933,-203.171"/>
<polygon fill="blue" stroke="blue" points="105.724,-205.475 95.8795,-209.392 106.018,-212.469 105.724,-205.475"/>
<text text-anchor="middle" x="183" y="-210.5" font-family="Times,serif" font-size="10.00">subClassOf</text>
</g>
<!-- http://divo.github.io/Line -->
<g id="node6" class="node"><title>http://divo.github.io/Line</title>
<polygon fill="none" stroke="black" points="332,-147 285,-147 285,-128 332,-128 332,-147"/>
<text text-anchor="middle" x="308.5" y="-135" font-family="Times,serif" font-size="10.00">Line</text>
</g>
<!-- http://divo.github.io/Canto -->
<g id="node7" class="node"><title>http://divo.github.io/Canto</title>
<polygon fill="none" stroke="black" points="335.5,-126 281.5,-126 281.5,-107 335.5,-107 335.5,-126"/>
<text text-anchor="middle" x="308.5" y="-114" font-family="Times,serif" font-size="10.00">Canto</text>
</g>
<!-- http://divo.github.io/Style -->
<g id="node8" class="node"><title>http://divo.github.io/Style</title>
<polygon fill="none" stroke="black" points="335.5,-105 281.5,-105 281.5,-86 335.5,-86 335.5,-105"/>
<text text-anchor="middle" x="308.5" y="-93" font-family="Times,serif" font-size="10.00">Style</text>
</g>
<!-- http://divo.github.io/InfernoSoul -->
<g id="node9" class="node"><title>http://divo.github.io/InfernoSoul</title>
<polygon fill="none" stroke="black" points="766.5,-252 637.5,-252 637.5,-233 766.5,-233 766.5,-252"/>
<text text-anchor="middle" x="702" y="-240" font-family="Times,serif" font-size="10.00">Soul of Inferno</text>
</g>
<!-- http://divo.github.io/Editor -->
<g id="node10" class="node"><title>http://divo.github.io/Editor</title>
<polygon fill="none" stroke="black" points="339.5,-294 277.5,-294 277.5,-275 339.5,-275 339.5,-294"/>
<text text-anchor="middle" x="308.5" y="-282" font-family="Times,serif" font-size="10.00">Editor</text>
</g>
<!-- http://divo.github.io/PurgatorioSoul -->
<g id="node11" class="node"><title>http://divo.github.io/PurgatorioSoul</title>
<polygon fill="none" stroke="black" points="778,-231 626,-231 626,-212 778,-212 778,-231"/>
<text text-anchor="middle" x="702" y="-219" font-family="Times,serif" font-size="10.00">Soul of Purgatorio</text>
</g>
<!-- http://divo.github.io/Cantica -->
<g id="node12" class="node"><title>http://divo.github.io/Cantica</title>
<polygon fill="none" stroke="black" points="343,-84 274,-84 274,-65 343,-65 343,-84"/>
<text text-anchor="middle" x="308.5" y="-72" font-family="Times,serif" font-size="10.00">Cantica</text>
</g>
<!-- http://divo.github.io/RealPerson -->
<g id="node13" class="node"><title>http://divo.github.io/RealPerson</title>
<polygon fill="none" stroke="black" points="358,-273 259,-273 259,-254 358,-254 358,-273"/>
<text text-anchor="middle" x="308.5" y="-261" font-family="Times,serif" font-size="10.00">Real Person</text>
</g>
<!-- http://divo.github.io/Demon -->
<g id="node14" class="node"><title>http://divo.github.io/Demon</title>
<polygon fill="none" stroke="black" points="534,-273 480,-273 480,-254 534,-254 534,-273"/>
<text text-anchor="middle" x="507" y="-261" font-family="Times,serif" font-size="10.00">Demon</text>
</g>
<!-- http://divo.github.io/LiteraryElement -->
<g id="node15" class="node"><title>http://divo.github.io/LiteraryElement</title>
<polygon fill="none" stroke="black" points="137,-115 0,-115 0,-96 137,-96 137,-115"/>
<text text-anchor="middle" x="68.5" y="-103" font-family="Times,serif" font-size="10.00">Literary Element</text>
</g>
<!-- http://divo.github.io/LiteraryElement&#45;&gt;http://divo.github.io/LiteraryWork -->
<g id="edge8" class="edge"><title>http://divo.github.io/LiteraryElement&#45;&gt;http://divo.github.io/LiteraryWork</title>
<path fill="none" stroke="blue" d="M83.8764,-122.811C97.751,-138.129 120.249,-159.548 145,-169.5 178.568,-182.997 219.193,-185.497 251.426,-184.623"/>
<polygon fill="blue" stroke="blue" points="86.3079,-120.274 77.0959,-115.041 81.0335,-124.877 86.3079,-120.274"/>
<text text-anchor="middle" x="183" y="-187.5" font-family="Times,serif" font-size="10.00">subClassOf</text>
</g>
<!-- http://divo.github.io/LiteraryElement&#45;&gt;http://divo.github.io/Edition -->
<g id="edge10" class="edge"><title>http://divo.github.io/LiteraryElement&#45;&gt;http://divo.github.io/Edition</title>
<path fill="none" stroke="blue" d="M92.2264,-120.693C106.695,-129.548 126.191,-140.02 145,-145.5 188.204,-158.088 240.426,-160.054 273.798,-159.737"/>
<polygon fill="blue" stroke="blue" points="93.8249,-117.563 83.5023,-115.177 90.0838,-123.48 93.8249,-117.563"/>
<text text-anchor="middle" x="183" y="-161.5" font-family="Times,serif" font-size="10.00">subClassOf</text>
</g>
<!-- http://divo.github.io/LiteraryElement&#45;&gt;http://divo.github.io/Line -->
<g id="edge3" class="edge"><title>http://divo.github.io/LiteraryElement&#45;&gt;http://divo.github.io/Line</title>
<path fill="none" stroke="blue" d="M110.348,-117.797C121.496,-120.747 133.635,-123.592 145,-125.5 194.38,-133.79 253.159,-136.353 284.734,-137.145"/>
<polygon fill="blue" stroke="blue" points="111.01,-114.349 100.44,-115.082 109.16,-121.1 111.01,-114.349"/>
<text text-anchor="middle" x="183" y="-137.5" font-family="Times,serif" font-size="10.00">subClassOf</text>
</g>
<!-- http://divo.github.io/LiteraryElement&#45;&gt;http://divo.github.io/Canto -->
<g id="edge7" class="edge"><title>http://divo.github.io/LiteraryElement&#45;&gt;http://divo.github.io/Canto</title>
<path fill="none" stroke="blue" d="M147.18,-110.585C199.778,-113.198 251.136,-114.875 281.315,-115.769"/>
<polygon fill="blue" stroke="blue" points="147.165,-107.08 137,-110.068 146.81,-114.071 147.165,-107.08"/>
<text text-anchor="middle" x="183" y="-117.5" font-family="Times,serif" font-size="10.00">subClassOf</text>
</g>
<!-- http://divo.github.io/LiteraryElement&#45;&gt;http://divo.github.io/Style -->
<g id="edge9" class="edge"><title>http://divo.github.io/LiteraryElement&#45;&gt;http://divo.github.io/Style</title>
<path fill="none" stroke="blue" d="M147.081,-102.24C193.344,-100.296 249.149,-97.9517 281.26,-96.6025"/>
<polygon fill="blue" stroke="blue" points="146.909,-98.7443 137.065,-102.661 147.203,-105.738 146.909,-98.7443"/>
<text text-anchor="middle" x="183" y="-105.5" font-family="Times,serif" font-size="10.00">subClassOf</text>
</g>
<!-- http://divo.github.io/LiteraryElement&#45;&gt;http://divo.github.io/Cantica -->
<g id="edge5" class="edge"><title>http://divo.github.io/LiteraryElement&#45;&gt;http://divo.github.io/Cantica</title>
<path fill="none" stroke="blue" d="M117.121,-93.7501C126.329,-91.7702 135.932,-89.9049 145,-88.5 189.212,-81.6502 240.75,-77.9228 273.729,-76.0727"/>
<polygon fill="blue" stroke="blue" points="116.331,-90.3402 107.329,-95.9273 117.851,-97.1733 116.331,-90.3402"/>
<text text-anchor="middle" x="183" y="-91.5" font-family="Times,serif" font-size="10.00">subClassOf</text>
</g>
<!-- http://divo.github.io/LiteraryReference -->
<g id="node16" class="node"><title>http://divo.github.io/LiteraryReference</title>
<polygon fill="none" stroke="black" points="384.5,-63 232.5,-63 232.5,-44 384.5,-44 384.5,-63"/>
<text text-anchor="middle" x="308.5" y="-51" font-family="Times,serif" font-size="10.00">Literary Reference</text>
</g>
<!-- http://divo.github.io/LiteraryElement&#45;&gt;http://divo.github.io/LiteraryReference -->
<g id="edge4" class="edge"><title>http://divo.github.io/LiteraryElement&#45;&gt;http://divo.github.io/LiteraryReference</title>
<path fill="none" stroke="blue" d="M94.1082,-91.0842C108.47,-83.3659 127.213,-74.4523 145,-69.5 172.992,-61.7065 204.62,-57.5889 232.484,-55.453"/>
<polygon fill="blue" stroke="blue" points="92.4101,-88.0236 85.3574,-95.9299 95.8012,-94.1474 92.4101,-88.0236"/>
<text text-anchor="middle" x="183" y="-72.5" font-family="Times,serif" font-size="10.00">subClassOf</text>
</g>
<!-- http://divo.github.io/Commentary -->
<g id="node17" class="node"><title>http://divo.github.io/Commentary</title>
<polygon fill="none" stroke="black" points="354.5,-42 262.5,-42 262.5,-23 354.5,-23 354.5,-42"/>
<text text-anchor="middle" x="308.5" y="-30" font-family="Times,serif" font-size="10.00">Commentary</text>
</g>
<!-- http://divo.github.io/LiteraryElement&#45;&gt;http://divo.github.io/Commentary -->
<g id="edge6" class="edge"><title>http://divo.github.io/LiteraryElement&#45;&gt;http://divo.github.io/Commentary</title>
<path fill="none" stroke="blue" d="M85.5366,-88.3574C99.7113,-74.4346 121.705,-55.6596 145,-46.5 182.684,-31.6825 228.972,-29.0505 262.494,-29.614"/>
<polygon fill="blue" stroke="blue" points="82.6536,-86.2978 78.1436,-95.8848 87.6478,-91.2028 82.6536,-86.2978"/>
<text text-anchor="middle" x="183" y="-49.5" font-family="Times,serif" font-size="10.00">subClassOf</text>
</g>
<!-- http://divo.github.io/Agent -->
<g id="node18" class="node"><title>http://divo.github.io/Agent</title>
<polygon fill="none" stroke="black" points="95.5,-273 41.5,-273 41.5,-254 95.5,-254 95.5,-273"/>
<text text-anchor="middle" x="68.5" y="-261" font-family="Times,serif" font-size="10.00">Agent</text>
</g>
<!-- http://divo.github.io/Agent&#45;&gt;http://divo.github.io/Editor -->
<g id="edge12" class="edge"><title>http://divo.github.io/Agent&#45;&gt;http://divo.github.io/Editor</title>
<path fill="none" stroke="blue" d="M105.654,-269.392C118.096,-271.253 132.133,-273.169 145,-274.5 191.109,-279.269 244.831,-282.032 277.488,-283.402"/>
<polygon fill="blue" stroke="blue" points="106.054,-265.912 95.6389,-267.855 104.992,-272.831 106.054,-265.912"/>
<text text-anchor="middle" x="183" y="-282.5" font-family="Times,serif" font-size="10.00">subClassOf</text>
</g>
<!-- http://divo.github.io/Agent&#45;&gt;http://divo.github.io/RealPerson -->
<g id="edge13" class="edge"><title>http://divo.github.io/Agent&#45;&gt;http://divo.github.io/RealPerson</title>
<path fill="none" stroke="blue" d="M105.944,-263.5C146.836,-263.5 213.368,-263.5 258.718,-263.5"/>
<polygon fill="blue" stroke="blue" points="105.88,-260 95.8795,-263.5 105.879,-267 105.88,-260"/>
<text text-anchor="middle" x="183" y="-266.5" font-family="Times,serif" font-size="10.00">subClassOf</text>
</g>
<!-- http://divo.github.io/FictionalCharacter -->
<g id="node19" class="node"><title>http://divo.github.io/FictionalCharacter</title>
<polygon fill="none" stroke="black" points="388,-252 229,-252 229,-233 388,-233 388,-252"/>
<text text-anchor="middle" x="308.5" y="-240" font-family="Times,serif" font-size="10.00">Fictional Character</text>
</g>
<!-- http://divo.github.io/Agent&#45;&gt;http://divo.github.io/FictionalCharacter -->
<g id="edge11" class="edge"><title>http://divo.github.io/Agent&#45;&gt;http://divo.github.io/FictionalCharacter</title>
<path fill="none" stroke="blue" d="M105.654,-257.608C118.096,-255.747 132.133,-253.831 145,-252.5 172.272,-249.679 202.207,-247.56 228.871,-246.016"/>
<polygon fill="blue" stroke="blue" points="104.992,-254.169 95.6389,-259.145 106.054,-261.088 104.992,-254.169"/>
<text text-anchor="middle" x="183" y="-255.5" font-family="Times,serif" font-size="10.00">subClassOf</text>
</g>
<!-- http://divo.github.io/FictionalCharacter&#45;&gt;http://divo.github.io/Demon -->
<g id="edge17" class="edge"><title>http://divo.github.io/FictionalCharacter&#45;&gt;http://divo.github.io/Demon</title>
<path fill="none" stroke="blue" d="M393.219,-253.194C394.151,-253.298 395.078,-253.4 396,-253.5 424.595,-256.617 457.445,-259.514 479.747,-261.38"/>
<polygon fill="blue" stroke="blue" points="393.427,-249.695 383.095,-252.041 392.634,-256.65 393.427,-249.695"/>
<text text-anchor="middle" x="434" y="-263.5" font-family="Times,serif" font-size="10.00">subClassOf</text>
</g>
<!-- http://divo.github.io/Angel -->
<g id="node20" class="node"><title>http://divo.github.io/Angel</title>
<polygon fill="none" stroke="black" points="534,-252 480,-252 480,-233 534,-233 534,-252"/>
<text text-anchor="middle" x="507" y="-240" font-family="Times,serif" font-size="10.00">Angel</text>
</g>
<!-- http://divo.github.io/FictionalCharacter&#45;&gt;http://divo.github.io/Angel -->
<g id="edge19" class="edge"><title>http://divo.github.io/FictionalCharacter&#45;&gt;http://divo.github.io/Angel</title>
<path fill="none" stroke="blue" d="M398.054,-242.5C427.857,-242.5 458.862,-242.5 479.955,-242.5"/>
<polygon fill="blue" stroke="blue" points="398.009,-239 388.009,-242.5 398.009,-246 398.009,-239"/>
<text text-anchor="middle" x="434" y="-245.5" font-family="Times,serif" font-size="10.00">subClassOf</text>
</g>
<!-- http://divo.github.io/Soul -->
<g id="node22" class="node"><title>http://divo.github.io/Soul</title>
<polygon fill="none" stroke="black" points="530.5,-231 483.5,-231 483.5,-212 530.5,-212 530.5,-231"/>
<text text-anchor="middle" x="507" y="-219" font-family="Times,serif" font-size="10.00">Soul</text>
</g>
<!-- http://divo.github.io/FictionalCharacter&#45;&gt;http://divo.github.io/Soul -->
<g id="edge18" class="edge"><title>http://divo.github.io/FictionalCharacter&#45;&gt;http://divo.github.io/Soul</title>
<path fill="none" stroke="blue" d="M393.219,-231.806C394.151,-231.702 395.078,-231.6 396,-231.5 426.12,-228.217 460.962,-225.177 483.224,-223.331"/>
<polygon fill="blue" stroke="blue" points="392.634,-228.35 383.095,-232.959 393.427,-235.305 392.634,-228.35"/>
<text text-anchor="middle" x="434" y="-234.5" font-family="Times,serif" font-size="10.00">subClassOf</text>
</g>
<!-- http://divo.github.io/ParadisoSoul -->
<g id="node21" class="node"><title>http://divo.github.io/ParadisoSoul</title>
<polygon fill="none" stroke="black" points="770.5,-210 633.5,-210 633.5,-191 770.5,-191 770.5,-210"/>
<text text-anchor="middle" x="702" y="-198" font-family="Times,serif" font-size="10.00">Soul of Paradiso</text>
</g>
<!-- http://divo.github.io/Soul&#45;&gt;http://divo.github.io/InfernoSoul -->
<g id="edge16" class="edge"><title>http://divo.github.io/Soul&#45;&gt;http://divo.github.io/InfernoSoul</title>
<path fill="none" stroke="blue" d="M540.622,-232.227C541.083,-232.322 541.543,-232.413 542,-232.5 573.112,-238.414 608.201,-241.039 637.485,-242.133"/>
<polygon fill="blue" stroke="blue" points="541.395,-228.812 530.842,-229.748 539.675,-235.597 541.395,-228.812"/>
<text text-anchor="middle" x="580" y="-243.5" font-family="Times,serif" font-size="10.00">subClassOf</text>
</g>
<!-- http://divo.github.io/Soul&#45;&gt;http://divo.github.io/PurgatorioSoul -->
<g id="edge14" class="edge"><title>http://divo.github.io/Soul&#45;&gt;http://divo.github.io/PurgatorioSoul</title>
<path fill="none" stroke="blue" d="M540.551,-221.5C563.868,-221.5 596.245,-221.5 625.812,-221.5"/>
<polygon fill="blue" stroke="blue" points="540.517,-218 530.517,-221.5 540.517,-225 540.517,-218"/>
<text text-anchor="middle" x="580" y="-224.5" font-family="Times,serif" font-size="10.00">subClassOf</text>
</g>
<!-- http://divo.github.io/Soul&#45;&gt;http://divo.github.io/ParadisoSoul -->
<g id="edge15" class="edge"><title>http://divo.github.io/Soul&#45;&gt;http://divo.github.io/ParadisoSoul</title>
<path fill="none" stroke="blue" d="M540.622,-210.773C541.083,-210.678 541.543,-210.587 542,-210.5 571.618,-204.87 604.839,-202.221 633.226,-201.036"/>
<polygon fill="blue" stroke="blue" points="539.675,-207.403 530.842,-213.252 541.395,-214.188 539.675,-207.403"/>
<text text-anchor="middle" x="580" y="-213.5" font-family="Times,serif" font-size="10.00">subClassOf</text>
</g>
</g>
</svg>
