<?xml version="1.0" encoding="UTF-8" standalone="no"?>
<!DOCTYPE svg PUBLIC "-//W3C//DTD SVG 1.1//EN"
 "http://www.w3.org/Graphics/SVG/1.1/DTD/svg11.dtd">
<!-- Generated by graphviz version 2.38.0 (20140413.2041)
 -->
<!-- Title: d1e4002 Pages: 1 -->
<svg width="534pt" height="302pt"
 viewBox="0.00 0.00 534.00 302.00" xmlns="http://www.w3.org/2000/svg" xmlns:xlink="http://www.w3.org/1999/xlink">
<g id="graph0" class="graph" transform="scale(1 1) rotate(0) translate(4 298)">
<title>d1e4002</title>
<polygon fill="white" stroke="none" points="-4,4 -4,-298 530,-298 530,4 -4,4"/>
<text text-anchor="middle" x="263" y="-7.8" font-family="Times,serif" font-size="14.00">Powered by http://rhizomik.net</text>
<!-- http://divo.github.io/LiteraryWork -->
<g id="node1" class="node"><title>http://divo.github.io/LiteraryWork</title>
<polygon fill="none" stroke="black" points="281.5,-189 167.5,-189 167.5,-170 281.5,-170 281.5,-189"/>
<text text-anchor="middle" x="224.5" y="-177" font-family="Times,serif" font-size="10.00">Literary Work</text>
</g>
<!-- http://divo.github.io/Edition -->
<g id="node2" class="node"><title>http://divo.github.io/Edition</title>
<polygon fill="none" stroke="black" points="259,-168 190,-168 190,-149 259,-149 259,-168"/>
<text text-anchor="middle" x="224.5" y="-156" font-family="Times,serif" font-size="10.00">Edition</text>
</g>
<!-- http://divo.github.io/Place -->
<g id="node3" class="node"><title>http://divo.github.io/Place</title>
<polygon fill="none" stroke="black" points="95.5,-220 41.5,-220 41.5,-201 95.5,-201 95.5,-220"/>
<text text-anchor="middle" x="68.5" y="-208" font-family="Times,serif" font-size="10.00">Place</text>
</g>
<!-- http://divo.github.io/RealPlace -->
<g id="node4" class="node"><title>http://divo.github.io/RealPlace</title>
<polygon fill="none" stroke="black" points="270.5,-231 178.5,-231 178.5,-212 270.5,-212 270.5,-231"/>
<text text-anchor="middle" x="224.5" y="-219" font-family="Times,serif" font-size="10.00">Real Place</text>
</g>
<!-- http://divo.github.io/Place&#45;&gt;http://divo.github.io/RealPlace -->
<g id="edge1" class="edge"><title>http://divo.github.io/Place&#45;&gt;http://divo.github.io/RealPlace</title>
<path fill="none" stroke="blue" d="M105.725,-213.087C127.386,-214.635 155.097,-216.614 178.198,-218.264"/>
<polygon fill="blue" stroke="blue" points="105.848,-209.587 95.624,-212.366 105.349,-216.57 105.848,-209.587"/>
</g>
<!-- http://divo.github.io/FictionalPlace -->
<g id="node5" class="node"><title>http://divo.github.io/FictionalPlace</title>
<polygon fill="none" stroke="black" points="289,-210 160,-210 160,-191 289,-191 289,-210"/>
<text text-anchor="middle" x="224.5" y="-198" font-family="Times,serif" font-size="10.00">Fictional Place</text>
</g>
<!-- http://divo.github.io/Place&#45;&gt;http://divo.github.io/FictionalPlace -->
<g id="edge2" class="edge"><title>http://divo.github.io/Place&#45;&gt;http://divo.github.io/FictionalPlace</title>
<path fill="none" stroke="blue" d="M105.682,-208.151C121.793,-207.104 141.257,-205.84 159.683,-204.644"/>
<polygon fill="blue" stroke="blue" points="105.376,-204.663 95.624,-208.804 105.83,-211.648 105.376,-204.663"/>
</g>
<!-- http://divo.github.io/Line -->
<g id="node6" class="node"><title>http://divo.github.io/Line</title>
<polygon fill="none" stroke="black" points="248,-147 201,-147 201,-128 248,-128 248,-147"/>
<text text-anchor="middle" x="224.5" y="-135" font-family="Times,serif" font-size="10.00">Line</text>
</g>
<!-- http://divo.github.io/Canto -->
<g id="node7" class="node"><title>http://divo.github.io/Canto</title>
<polygon fill="none" stroke="black" points="251.5,-126 197.5,-126 197.5,-107 251.5,-107 251.5,-126"/>
<text text-anchor="middle" x="224.5" y="-114" font-family="Times,serif" font-size="10.00">Canto</text>
</g>
<!-- http://divo.github.io/Style -->
<g id="node8" class="node"><title>http://divo.github.io/Style</title>
<polygon fill="none" stroke="black" points="251.5,-105 197.5,-105 197.5,-86 251.5,-86 251.5,-105"/>
<text text-anchor="middle" x="224.5" y="-93" font-family="Times,serif" font-size="10.00">Style</text>
</g>
<!-- http://divo.github.io/InfernoSoul -->
<g id="node9" class="node"><title>http://divo.github.io/InfernoSoul</title>
<polygon fill="none" stroke="black" points="514.5,-252 385.5,-252 385.5,-233 514.5,-233 514.5,-252"/>
<text text-anchor="middle" x="450" y="-240" font-family="Times,serif" font-size="10.00">Soul of Inferno</text>
</g>
<!-- http://divo.github.io/Editor -->
<g id="node10" class="node"><title>http://divo.github.io/Editor</title>
<polygon fill="none" stroke="black" points="255.5,-294 193.5,-294 193.5,-275 255.5,-275 255.5,-294"/>
<text text-anchor="middle" x="224.5" y="-282" font-family="Times,serif" font-size="10.00">Editor</text>
</g>
<!-- http://divo.github.io/PurgatorioSoul -->
<g id="node11" class="node"><title>http://divo.github.io/PurgatorioSoul</title>
<polygon fill="none" stroke="black" points="526,-231 374,-231 374,-212 526,-212 526,-231"/>
<text text-anchor="middle" x="450" y="-219" font-family="Times,serif" font-size="10.00">Soul of Purgatorio</text>
</g>
<!-- http://divo.github.io/Cantica -->
<g id="node12" class="node"><title>http://divo.github.io/Cantica</title>
<polygon fill="none" stroke="black" points="259,-84 190,-84 190,-65 259,-65 259,-84"/>
<text text-anchor="middle" x="224.5" y="-72" font-family="Times,serif" font-size="10.00">Cantica</text>
</g>
<!-- http://divo.github.io/RealPerson -->
<g id="node13" class="node"><title>http://divo.github.io/RealPerson</title>
<polygon fill="none" stroke="black" points="274,-273 175,-273 175,-254 274,-254 274,-273"/>
<text text-anchor="middle" x="224.5" y="-261" font-family="Times,serif" font-size="10.00">Real Person</text>
</g>
<!-- http://divo.github.io/Demon -->
<g id="node14" class="node"><title>http://divo.github.io/Demon</title>
<polygon fill="none" stroke="black" points="366,-273 312,-273 312,-254 366,-254 366,-273"/>
<text text-anchor="middle" x="339" y="-261" font-family="Times,serif" font-size="10.00">Demon</text>
</g>
<!-- http://divo.github.io/LiteraryElement -->
<g id="node15" class="node"><title>http://divo.github.io/LiteraryElement</title>
<polygon fill="none" stroke="black" points="137,-115 0,-115 0,-96 137,-96 137,-115"/>
<text text-anchor="middle" x="68.5" y="-103" font-family="Times,serif" font-size="10.00">Literary Element</text>
</g>
<!-- http://divo.github.io/LiteraryElement&#45;&gt;http://divo.github.io/LiteraryWork -->
<g id="edge8" class="edge"><title>http://divo.github.io/LiteraryElement&#45;&gt;http://divo.github.io/LiteraryWork</title>
<path fill="none" stroke="blue" d="M85.7865,-122.476C100.068,-136.297 122.081,-155.155 145,-165.5 151.94,-168.632 159.521,-171.065 167.148,-172.954"/>
<polygon fill="blue" stroke="blue" points="88.2437,-119.983 78.6909,-115.401 83.3013,-124.94 88.2437,-119.983"/>
</g>
<!-- http://divo.github.io/LiteraryElement&#45;&gt;http://divo.github.io/Edition -->
<g id="edge10" class="edge"><title>http://divo.github.io/LiteraryElement&#45;&gt;http://divo.github.io/Edition</title>
<path fill="none" stroke="blue" d="M93.57,-120.303C108.007,-128.57 127.004,-138.403 145,-144.5 159.292,-149.342 175.644,-152.598 189.712,-154.742"/>
<polygon fill="blue" stroke="blue" points="95.1934,-117.198 84.798,-115.152 91.6487,-123.234 95.1934,-117.198"/>
</g>
<!-- http://divo.github.io/LiteraryElement&#45;&gt;http://divo.github.io/Line -->
<g id="edge3" class="edge"><title>http://divo.github.io/LiteraryElement&#45;&gt;http://divo.github.io/Line</title>
<path fill="none" stroke="blue" d="M117.803,-117.452C126.821,-119.56 136.182,-121.664 145,-123.5 163.703,-127.394 185.053,-131.158 200.761,-133.801"/>
<polygon fill="blue" stroke="blue" points="118.351,-113.985 107.813,-115.086 116.737,-120.797 118.351,-113.985"/>
</g>
<!-- http://divo.github.io/LiteraryElement&#45;&gt;http://divo.github.io/Canto -->
<g id="edge7" class="edge"><title>http://divo.github.io/LiteraryElement&#45;&gt;http://divo.github.io/Canto</title>
<path fill="none" stroke="blue" d="M147.094,-111.042C165.217,-112.337 183.297,-113.628 197.316,-114.63"/>
<polygon fill="blue" stroke="blue" points="147.271,-107.546 137.047,-110.325 146.772,-114.528 147.271,-107.546"/>
</g>
<!-- http://divo.github.io/LiteraryElement&#45;&gt;http://divo.github.io/Style -->
<g id="edge9" class="edge"><title>http://divo.github.io/LiteraryElement&#45;&gt;http://divo.github.io/Style</title>
<path fill="none" stroke="blue" d="M147.094,-100.461C165.217,-99.2846 183.297,-98.1106 197.316,-97.2003"/>
<polygon fill="blue" stroke="blue" points="146.799,-96.9731 137.047,-101.114 147.252,-103.958 146.799,-96.9731"/>
</g>
<!-- http://divo.github.io/LiteraryElement&#45;&gt;http://divo.github.io/Cantica -->
<g id="edge5" class="edge"><title>http://divo.github.io/LiteraryElement&#45;&gt;http://divo.github.io/Cantica</title>
<path fill="none" stroke="blue" d="M117.197,-93.5952C126.397,-91.4501 135.979,-89.32 145,-87.5 159.625,-84.5495 175.881,-81.7747 189.789,-79.5526"/>
<polygon fill="blue" stroke="blue" points="116.331,-90.2034 107.407,-95.9149 117.945,-97.0149 116.331,-90.2034"/>
</g>
<!-- http://divo.github.io/LiteraryReference -->
<g id="node16" class="node"><title>http://divo.github.io/LiteraryReference</title>
<polygon fill="none" stroke="black" points="300.5,-63 148.5,-63 148.5,-44 300.5,-44 300.5,-63"/>
<text text-anchor="middle" x="224.5" y="-51" font-family="Times,serif" font-size="10.00">Literary Reference</text>
</g>
<!-- http://divo.github.io/LiteraryElement&#45;&gt;http://divo.github.io/LiteraryReference -->
<g id="edge4" class="edge"><title>http://divo.github.io/LiteraryElement&#45;&gt;http://divo.github.io/LiteraryReference</title>
<path fill="none" stroke="blue" d="M93.2672,-90.7723C107.728,-82.4443 126.852,-72.5233 145,-66.5 148.802,-65.2381 152.75,-64.0952 156.762,-63.0607"/>
<polygon fill="blue" stroke="blue" points="91.3225,-87.8561 84.4954,-95.9581 94.8848,-93.8819 91.3225,-87.8561"/>
</g>
<!-- http://divo.github.io/Commentary -->
<g id="node17" class="node"><title>http://divo.github.io/Commentary</title>
<polygon fill="none" stroke="black" points="270.5,-42 178.5,-42 178.5,-23 270.5,-23 270.5,-42"/>
<text text-anchor="middle" x="224.5" y="-30" font-family="Times,serif" font-size="10.00">Commentary</text>
</g>
<!-- http://divo.github.io/LiteraryElement&#45;&gt;http://divo.github.io/Commentary -->
<g id="edge6" class="edge"><title>http://divo.github.io/LiteraryElement&#45;&gt;http://divo.github.io/Commentary</title>
<path fill="none" stroke="blue" d="M85.7539,-88.4514C100.016,-74.5853 122.018,-55.703 145,-45.5 155.353,-40.9037 167.128,-37.9182 178.351,-35.983"/>
<polygon fill="blue" stroke="blue" points="83.2551,-86.0005 78.6699,-95.5518 88.2106,-90.9446 83.2551,-86.0005"/>
</g>
<!-- http://divo.github.io/Agent -->
<g id="node18" class="node"><title>http://divo.github.io/Agent</title>
<polygon fill="none" stroke="black" points="95.5,-273 41.5,-273 41.5,-254 95.5,-254 95.5,-273"/>
<text text-anchor="middle" x="68.5" y="-261" font-family="Times,serif" font-size="10.00">Agent</text>
</g>
<!-- http://divo.github.io/Agent&#45;&gt;http://divo.github.io/Editor -->
<g id="edge12" class="edge"><title>http://divo.github.io/Agent&#45;&gt;http://divo.github.io/Editor</title>
<path fill="none" stroke="blue" d="M105.705,-268.437C132.351,-272.071 168.162,-276.954 193.28,-280.379"/>
<polygon fill="blue" stroke="blue" points="106.005,-264.946 95.624,-267.062 105.059,-271.881 106.005,-264.946"/>
</g>
<!-- http://divo.github.io/Agent&#45;&gt;http://divo.github.io/RealPerson -->
<g id="edge13" class="edge"><title>http://divo.github.io/Agent&#45;&gt;http://divo.github.io/RealPerson</title>
<path fill="none" stroke="blue" d="M105.846,-263.5C126.434,-263.5 152.458,-263.5 174.793,-263.5"/>
<polygon fill="blue" stroke="blue" points="105.624,-260 95.624,-263.5 105.624,-267 105.624,-260"/>
</g>
<!-- http://divo.github.io/FictionalCharacter -->
<g id="node19" class="node"><title>http://divo.github.io/FictionalCharacter</title>
<polygon fill="none" stroke="black" points="304,-252 145,-252 145,-233 304,-233 304,-252"/>
<text text-anchor="middle" x="224.5" y="-240" font-family="Times,serif" font-size="10.00">Fictional Character</text>
</g>
<!-- http://divo.github.io/Agent&#45;&gt;http://divo.github.io/FictionalCharacter -->
<g id="edge11" class="edge"><title>http://divo.github.io/Agent&#45;&gt;http://divo.github.io/FictionalCharacter</title>
<path fill="none" stroke="blue" d="M105.592,-258.578C119.997,-256.614 137.094,-254.283 153.736,-252.013"/>
<polygon fill="blue" stroke="blue" points="105.059,-255.119 95.624,-259.938 106.005,-262.054 105.059,-255.119"/>
</g>
<!-- http://divo.github.io/FictionalCharacter&#45;&gt;http://divo.github.io/Demon -->
<g id="edge17" class="edge"><title>http://divo.github.io/FictionalCharacter&#45;&gt;http://divo.github.io/Demon</title>
<path fill="none" stroke="blue" d="M295.468,-253.842C298.353,-254.387 301.206,-254.941 304,-255.5 306.497,-256 309.09,-256.551 311.68,-257.124"/>
<polygon fill="blue" stroke="blue" points="296.046,-250.39 285.578,-252.025 294.781,-257.274 296.046,-250.39"/>
</g>
<!-- http://divo.github.io/Angel -->
<g id="node20" class="node"><title>http://divo.github.io/Angel</title>
<polygon fill="none" stroke="black" points="366,-252 312,-252 312,-233 366,-233 366,-252"/>
<text text-anchor="middle" x="339" y="-240" font-family="Times,serif" font-size="10.00">Angel</text>
</g>
<!-- http://divo.github.io/FictionalCharacter&#45;&gt;http://divo.github.io/Angel -->
<g id="edge19" class="edge"><title>http://divo.github.io/FictionalCharacter&#45;&gt;http://divo.github.io/Angel</title>
<path fill="none" stroke="blue" d="M311.488,-242.5C311.643,-242.5 311.797,-242.5 311.952,-242.5"/>
<polygon fill="blue" stroke="blue" points="314.246,-239 304.246,-242.5 314.246,-246 314.246,-239"/>
</g>
<!-- http://divo.github.io/Soul -->
<g id="node22" class="node"><title>http://divo.github.io/Soul</title>
<polygon fill="none" stroke="black" points="362.5,-231 315.5,-231 315.5,-212 362.5,-212 362.5,-231"/>
<text text-anchor="middle" x="339" y="-219" font-family="Times,serif" font-size="10.00">Soul</text>
</g>
<!-- http://divo.github.io/FictionalCharacter&#45;&gt;http://divo.github.io/Soul -->
<g id="edge18" class="edge"><title>http://divo.github.io/FictionalCharacter&#45;&gt;http://divo.github.io/Soul</title>
<path fill="none" stroke="blue" d="M289.852,-231.166C294.642,-230.279 299.399,-229.384 304,-228.5 307.669,-227.795 311.556,-227.021 315.339,-226.253"/>
<polygon fill="blue" stroke="blue" points="289.215,-227.724 280.01,-232.971 290.478,-234.61 289.215,-227.724"/>
</g>
<!-- http://divo.github.io/ParadisoSoul -->
<g id="node21" class="node"><title>http://divo.github.io/ParadisoSoul</title>
<polygon fill="none" stroke="black" points="518.5,-210 381.5,-210 381.5,-191 518.5,-191 518.5,-210"/>
<text text-anchor="middle" x="450" y="-198" font-family="Times,serif" font-size="10.00">Soul of Paradiso</text>
</g>
<!-- http://divo.github.io/Soul&#45;&gt;http://divo.github.io/InfernoSoul -->
<g id="edge16" class="edge"><title>http://divo.github.io/Soul&#45;&gt;http://divo.github.io/InfernoSoul</title>
<path fill="none" stroke="blue" d="M372.615,-228.227C373.08,-228.319 373.542,-228.41 374,-228.5 381.539,-229.98 389.511,-231.507 397.334,-232.985"/>
<polygon fill="blue" stroke="blue" points="373.16,-224.767 362.666,-226.227 371.78,-231.63 373.16,-224.767"/>
</g>
<!-- http://divo.github.io/Soul&#45;&gt;http://divo.github.io/PurgatorioSoul -->
<g id="edge14" class="edge"><title>http://divo.github.io/Soul&#45;&gt;http://divo.github.io/PurgatorioSoul</title>
<path fill="none" stroke="blue" d="M372.669,-221.5C373.034,-221.5 373.401,-221.5 373.77,-221.5"/>
<polygon fill="blue" stroke="blue" points="372.585,-218 362.585,-221.5 372.585,-225 372.585,-218"/>
</g>
<!-- http://divo.github.io/Soul&#45;&gt;http://divo.github.io/ParadisoSoul -->
<g id="edge15" class="edge"><title>http://divo.github.io/Soul&#45;&gt;http://divo.github.io/ParadisoSoul</title>
<path fill="none" stroke="blue" d="M372.609,-213.787C373.076,-213.69 373.54,-213.594 374,-213.5 379.827,-212.311 385.922,-211.138 392.012,-210.012"/>
<polygon fill="blue" stroke="blue" points="371.654,-210.413 362.637,-215.976 373.155,-217.25 371.654,-210.413"/>
</g>
</g>
</svg>
